<svg width="1920" height="828" viewBox="0 0 1920 828" fill="none" xmlns="http://www.w3.org/2000/svg">
<g clip-path="url(#clip0_242_4326)">
<rect width="1920" height="828" fill="#2C83F5"/>
<path d="M774.669 -99.001C591.736 -49.9364 422.257 34.8347 274.973 148.584C127.812 262.226 2.88599 404.837 -91.0826 569.69L-13.8253 613.595C74.1992 459.169 191.285 325.532 329.262 218.973C467.107 112.522 625.949 33.1175 797.629 -12.9254L774.669 -98.9927V-99.001Z" fill="white" fill-opacity="0.2"/>
<path d="M1395.03 119.442C1353.92 110.393 1311.93 103.533 1269.3 98.9093C1226.47 94.2612 1183.96 91.9248 1142.04 91.9248C1005.57 91.9248 871.153 115.619 744.462 160.993C618.044 206.26 499.095 273.347 393.296 360.215L449.679 428.871C547.052 348.921 657.048 286.994 774.397 244.964C891.475 203.04 1015.77 181.146 1142.04 181.146C1182.05 181.146 1221.42 183.251 1259.91 187.429C1298.56 191.631 1337.41 198.013 1376.25 206.566L1395.04 119.45L1395.03 119.442Z" fill="white" fill-opacity="0.2"/>
<path d="M1989.79 859.961C1910.77 698.047 1789.21 565.813 1642.49 474.107C1495.65 382.318 1323.63 330.991 1143.86 330.991V420.212C1306.85 420.212 1462.64 466.66 1595.52 549.73C1728.53 632.858 1838.64 752.577 1910.11 898.994L1989.79 859.969V859.961Z" fill="white" fill-opacity="0.2"/>
<path d="M2065.21 550.893C1996.42 464.149 1916.31 387.964 1827.45 324.204C1738.83 260.625 1641.04 209.109 1536.66 171.644L1505.15 259.643C1600.6 293.938 1690.63 341.45 1772.9 400.488C1854.91 459.335 1928.74 529.518 1991.96 609.212L2065.2 550.893H2065.21Z" fill="white" fill-opacity="0.2"/>
</g>
<defs>
<clipPath id="clip0_242_4326">
<rect width="1920" height="828" fill="white"/>
</clipPath>
</defs>
</svg>
