<svg width="1676" height="703" viewBox="0 0 1676 703" fill="none" xmlns="http://www.w3.org/2000/svg">
<g clip-path="url(#clip0_232_5778)">
<rect width="1676" height="703" fill="#3048CD"/>
<path d="M139.414 46.1227C7.71945 92.5735 -112.571 164.409 -215.356 256.199C-318.056 347.904 -403.221 459.554 -464.765 585.719L-406.321 613.446C-348.671 495.26 -268.849 390.635 -172.559 304.647C-76.3612 218.746 36.3823 151.452 159.976 107.861L139.415 46.1288L139.414 46.1227Z" fill="white" fill-opacity="0.1"/>
<path d="M602.839 170.518C572.368 166.251 541.348 163.636 509.956 162.698C478.411 161.753 447.209 162.483 416.537 164.891C316.693 172.729 219.386 197.808 128.679 238.324C38.1658 278.747 -45.9283 334.726 -119.537 404.44L-75.2839 451.498C-7.53736 387.336 70.2318 335.651 154.251 298.12C238.076 260.684 328.055 237.505 420.444 230.252C449.716 227.954 478.61 227.235 506.955 228.085C535.416 228.944 564.117 231.387 592.907 235.423L602.845 170.524L602.839 170.518Z" fill="white" fill-opacity="0.1"/>
<path d="M1070.36 678.849C1005.47 564.773 910.751 474.882 799.394 416.127C687.948 357.318 559.851 329.597 428.327 339.923L432.228 405.284C551.47 395.923 667.484 421.002 768.337 474.225C869.282 527.484 955.083 608.863 1013.77 712.021L1070.36 678.855L1070.36 678.849Z" fill="white" fill-opacity="0.1"/>
<path d="M1112.03 448.099C1057.91 388.502 995.963 337.292 928.164 295.687C860.549 254.2 786.753 222.076 708.741 200.626L689.534 266.902C760.87 286.544 828.82 316.179 891.587 354.704C954.164 393.104 1011.25 440.279 1060.99 495.03L1112.02 448.1L1112.03 448.099Z" fill="white" fill-opacity="0.1"/>
</g>
<defs>
<clipPath id="clip0_232_5778">
<rect width="1676" height="703" fill="white"/>
</clipPath>
</defs>
</svg>
