<svg width="1920" height="506" viewBox="0 0 1920 506" fill="none" xmlns="http://www.w3.org/2000/svg">
<g clip-path="url(#clip0_229_6426)">
<rect width="1920" height="506" fill="#6BC533"/>
<path d="M1006.15 -52.001C1156.14 -11.7716 1295.1 57.7345 1415.86 151C1536.52 244.178 1638.95 361.11 1716 496.277L1652.65 532.275C1580.48 405.658 1484.48 296.085 1371.35 208.715C1258.32 121.433 1128.08 56.3265 987.32 18.5747L1006.15 -51.9942V-52.001Z" fill="white" fill-opacity="0.2"/>
<path d="M497.497 127.106C531.201 119.687 565.628 114.061 600.583 110.271C635.706 106.46 670.56 104.544 704.933 104.544C816.826 104.544 927.037 123.972 1030.91 161.175C1134.57 198.291 1232.1 253.297 1318.84 324.522L1272.61 380.815C1192.78 315.262 1102.59 264.486 1006.37 230.024C910.374 195.651 808.465 177.699 704.926 177.699C672.121 177.699 639.843 179.425 608.282 182.85C576.593 186.296 544.741 191.528 512.896 198.541L497.49 127.112L497.497 127.106Z" fill="white" fill-opacity="0.2"/>
<path d="M9.83887 734.277C74.6308 601.52 174.296 493.098 294.599 417.906C414.996 342.646 556.038 300.562 703.434 300.562V373.716C569.801 373.716 442.062 411.8 333.109 479.911C224.055 548.07 133.765 646.231 75.1716 766.282L9.83887 734.284V734.277Z" fill="white" fill-opacity="0.2"/>
<path d="M-52 480.864C4.39638 409.74 70.0874 347.274 142.944 294.995C215.604 242.866 295.781 200.626 381.373 169.907L407.208 242.06C328.944 270.179 255.121 309.136 187.673 357.543C120.427 405.793 59.8937 463.338 8.05337 528.681L-51.9932 480.864H-52Z" fill="white" fill-opacity="0.2"/>
</g>
<defs>
<clipPath id="clip0_229_6426">
<rect width="1920" height="506" fill="white"/>
</clipPath>
</defs>
</svg>
