<svg width="1672" height="442" viewBox="0 0 1672 442" fill="none" xmlns="http://www.w3.org/2000/svg">
<g clip-path="url(#clip0_229_6779)">
<rect width="1672" height="442" fill="#FFA200"/>
<path d="M725.635 -95.0012C553.939 -49.179 394.21 29.9901 254.726 136.222C115.358 242.354 -3.72688 375.542 -94.2694 529.501L-22.8435 570.504C61.9717 426.283 173.583 301.477 304.253 201.96C434.797 102.544 584.501 28.3864 745.635 -14.6138L725.634 -94.9935L725.635 -95.0012Z" fill="white" fill-opacity="0.1"/>
<path d="M1301.42 109.005C1263.18 100.555 1224.07 94.1478 1184.33 89.83C1144.39 85.4891 1104.73 83.3071 1065.57 83.3071C938.1 83.3071 812.149 105.436 693.05 147.811C574.206 190.087 461.973 252.74 361.69 333.868L413.202 397.987C505.498 323.32 609.282 265.486 719.6 226.233C829.663 187.08 946.127 166.632 1064.08 166.632C1101.45 166.632 1138.19 168.598 1174.07 172.5C1210.1 176.424 1246.28 182.384 1282.41 190.372L1301.43 109.013L1301.42 109.005Z" fill="white" fill-opacity="0.1"/>
<path d="M1844.53 800.589C1773.43 649.375 1662.12 525.88 1526.61 440.234C1390.99 354.511 1231.18 306.576 1063.26 306.576L1061.76 389.901C1214 389.901 1358.74 433.279 1481.46 510.86C1604.3 588.495 1705.15 700.302 1769.44 837.043L1844.53 800.597L1844.53 800.589Z" fill="white" fill-opacity="0.1"/>
<path d="M1920.16 511.945C1857.37 430.933 1783.82 359.783 1701.89 300.236C1620.18 240.859 1529.71 192.747 1432.83 157.758L1401.92 239.942C1490.51 271.97 1573.81 316.343 1649.65 371.479C1725.27 426.438 1793.05 491.983 1850.77 566.41L1920.16 511.945H1920.16Z" fill="white" fill-opacity="0.1"/>
</g>
<defs>
<clipPath id="clip0_229_6779">
<rect width="1672" height="442" fill="white"/>
</clipPath>
</defs>
</svg>
