<svg width="1670" height="1106" viewBox="0 0 1670 1106" fill="none" xmlns="http://www.w3.org/2000/svg">
<g clip-path="url(#clip0_217_7394)">
<rect width="1670" height="1106" fill="#EE495C"/>
<path d="M670.521 -122.002C462.198 -66.405 268.397 29.6526 99.1573 158.546C-69.9399 287.318 -214.428 448.917 -324.285 635.719L-237.623 685.469C-134.715 510.483 0.705053 359.053 159.249 238.307C317.642 117.683 499.281 27.7067 694.787 -24.4663L670.52 -121.993L670.521 -122.002Z" fill="white" fill-opacity="0.1"/>
<path d="M1369.13 125.524C1322.73 115.271 1275.28 107.497 1227.06 102.258C1178.61 96.9912 1130.48 94.3438 1082.97 94.3438C928.309 94.3438 775.49 121.193 630.984 172.608C486.789 223.902 350.614 299.921 228.939 398.354L291.439 476.151C403.424 385.557 529.347 315.384 663.199 267.758C796.74 220.253 938.048 195.444 1081.16 195.444C1126.51 195.444 1171.08 197.829 1214.62 202.563C1258.33 207.324 1302.23 214.556 1346.07 224.248L1369.14 125.533L1369.13 125.524Z" fill="white" fill-opacity="0.1"/>
<path d="M2028.09 964.636C1941.84 781.165 1806.77 631.326 1642.36 527.41C1477.81 423.401 1283.91 365.24 1080.17 365.24L1078.35 466.34C1263.06 466.34 1438.68 518.972 1587.59 613.102C1736.63 707.298 1858.99 842.955 1936.99 1008.87L2028.09 964.645L2028.09 964.636Z" fill="white" fill-opacity="0.1"/>
<path d="M2119.87 614.419C2043.68 516.126 1954.44 429.797 1855.03 357.548C1755.9 285.505 1646.12 227.13 1528.58 184.677L1491.08 284.392C1598.56 323.253 1699.63 377.091 1791.65 443.989C1883.4 510.672 1965.64 590.199 2035.67 680.503L2119.86 614.419H2119.87Z" fill="white" fill-opacity="0.1"/>
<path d="M596.521 593.998C388.198 649.595 194.397 745.653 25.1573 874.546C-143.94 1003.32 -288.428 1164.92 -398.285 1351.72L-311.623 1401.47C-208.715 1226.48 -73.2949 1075.05 85.2493 954.307C243.642 833.683 425.281 743.707 620.787 691.534L596.52 594.007L596.521 593.998Z" fill="white" fill-opacity="0.1"/>
<path d="M1295.13 841.524C1248.73 831.271 1201.28 823.497 1153.06 818.258C1104.61 812.991 1056.48 810.344 1008.97 810.344C854.309 810.344 701.49 837.193 556.984 888.608C412.789 939.902 276.614 1015.92 154.939 1114.35L217.439 1192.15C329.424 1101.56 455.347 1031.38 589.199 983.758C722.74 936.253 864.048 911.444 1007.16 911.444C1052.51 911.444 1097.08 913.829 1140.62 918.563C1184.33 923.324 1228.23 930.556 1272.07 940.248L1295.14 841.533L1295.13 841.524Z" fill="white" fill-opacity="0.1"/>
<path d="M1954.09 1680.64C1867.84 1497.17 1732.77 1347.33 1568.36 1243.41C1403.81 1139.4 1209.91 1081.24 1006.17 1081.24L1004.35 1182.34C1189.06 1182.34 1364.68 1234.97 1513.59 1329.1C1662.63 1423.3 1784.99 1558.96 1862.99 1724.87L1954.09 1680.65L1954.09 1680.64Z" fill="white" fill-opacity="0.1"/>
<path d="M2045.87 1330.42C1969.68 1232.13 1880.44 1145.8 1781.03 1073.55C1681.9 1001.51 1572.12 943.13 1454.58 900.677L1417.08 1000.39C1524.56 1039.25 1625.63 1093.09 1717.65 1159.99C1809.4 1226.67 1891.64 1306.2 1961.67 1396.5L2045.86 1330.42H2045.87Z" fill="white" fill-opacity="0.1"/>
</g>
<defs>
<clipPath id="clip0_217_7394">
<rect width="1670" height="1106" fill="white"/>
</clipPath>
</defs>
</svg>
