<svg width="1920" height="903" viewBox="0 0 1920 903" fill="none" xmlns="http://www.w3.org/2000/svg">
<g clip-path="url(#clip0_229_6441)">
<path d="M1042.02 -97C1249.3 -41.4354 1441.33 54.5661 1608.22 183.385C1774.97 312.082 1916.52 473.586 2023 660.279L1935.46 710C1835.72 535.116 1703.05 383.774 1546.71 263.099C1390.52 142.546 1210.53 52.6214 1016 0.478767L1042.02 -96.9907V-97Z" fill="#D8D8E1" fill-opacity="0.2"/>
<path d="M541.913 218.002C582.88 208.984 624.726 202.147 667.213 197.539C709.906 192.907 752.27 190.578 794.05 190.578C930.057 190.578 1064.02 214.192 1190.28 259.413C1316.27 304.527 1434.82 371.387 1540.26 457.961L1484.07 526.385C1387.02 446.706 1277.4 384.988 1160.45 343.099C1043.76 301.318 919.893 279.497 794.042 279.497C754.168 279.497 714.934 281.596 676.572 285.759C638.053 289.947 599.337 296.307 560.63 304.831L541.904 218.01L541.913 218.002Z" fill="#D8D8E1" fill-opacity="0.2"/>
<path d="M-50.835 956.018C27.9195 794.651 149.063 662.864 295.29 571.468C441.633 479.99 613.069 428.837 792.228 428.837V517.756C629.798 517.756 474.532 564.047 342.099 646.836C209.544 729.683 99.7969 848.997 28.5769 994.919L-50.835 956.026V956.018Z" fill="#D8D8E1" fill-opacity="0.2"/>
<path d="M-126 647.992C-57.4503 561.541 22.397 485.614 110.954 422.07C199.272 358.706 296.727 307.364 400.763 270.025L432.167 357.727C337.037 391.906 247.305 439.258 165.322 498.096C83.5846 556.744 10.0065 626.69 -53.0053 706.115L-125.992 647.992H-126Z" fill="#D8D8E1" fill-opacity="0.2"/>
</g>
<defs>
<clipPath id="clip0_229_6441">
<rect width="1920" height="903" fill="white"/>
</clipPath>
</defs>
</svg>
